<svg xmlns="http://www.w3.org/2000/svg" viewBox="0 0 120 104">
  <!-- Static copy of the classic pudding from src/components/Pudding.jsx
       (plate, flan, caramel cap, face). Kept in sync by hand; it is the
       rasterization source for the custom cursor (see scripts/generate-icons.mjs). -->
  <ellipse cx="60" cy="92" rx="54" ry="9" fill="#FFD1DC" stroke="#E8A8B8" stroke-width="2"/>
  <path d="M 26 88 C 21 62 25 38 60 36 C 95 38 99 62 94 88 C 80 93 40 93 26 88 Z" fill="#FBE7A2" stroke="#C99B5F" stroke-width="2.5"/>
  <path d="M 30 56 C 30 41 44 34 60 34 C 76 34 90 41 90 56 C 90 62 83 64 77 59 C 72 66 65 61 60 65 C 55 61 48 66 43 59 C 37 64 30 62 30 56 Z" fill="#A67C52"/>
  <ellipse cx="47" cy="69" rx="2.6" ry="3.4" fill="#5B4222"/>
  <ellipse cx="73" cy="69" rx="2.6" ry="3.4" fill="#5B4222"/>
  <path d="M 55 75 Q 60 79 65 75" stroke="#5B4222" stroke-width="2.2" fill="none" stroke-linecap="round"/>
</svg>
